<svg width="180" height="78" viewBox="0 0 180 78" fill="none" xmlns="http://www.w3.org/2000/svg">
<path d="M17.3755 39.8439C20.8517 39.8439 23.6691 42.6503 23.6691 46.1113V62.4063C23.6691 65.7842 23.6341 67.9568 23.564 68.9224C23.494 69.8888 23.175 70.7609 22.6078 71.5395C22.0398 72.3181 21.2572 72.8147 20.3024 73.1554C18.9891 73.6237 17.8338 73.7944 16.1412 73.813C14.7176 73.8286 12.6068 73.8234 10.4445 73.5926C8.8726 73.4241 7.64577 72.9438 6.72751 72.3167C5.90465 71.7548 5.52527 71.1194 5.25621 70.4893C4.90217 69.6587 4.87012 68.3064 5.28826 67.1648C5.61546 66.2719 6.36453 65.4176 7.08378 64.9277C8.09372 64.2397 9.25422 64.0125 10.9573 64.4579C11.7116 64.6546 12.4927 65.1719 12.8028 65.6447C13.1822 66.2229 13.5705 67.173 14.1079 67.1886C14.7168 67.2064 14.722 66.5636 14.7697 66.1813C14.8256 65.7367 14.8532 64.875 14.8532 63.5954V42.3549C14.854 40.9684 15.9832 39.8439 17.3755 39.8439Z" fill="black"/>
<path d="M47.5692 59.6118C47.5692 63.0038 47.4887 65.4057 47.3285 66.8167C47.1675 68.2277 46.6651 69.5169 45.8207 70.6845C44.9762 71.852 43.8343 72.7486 42.3973 73.3743C40.9595 74 39.284 74.3125 37.3722 74.3125C35.5573 74.3125 33.9272 74.0171 32.4828 73.4263C31.0383 72.8355 29.8756 71.9492 28.9961 70.7676C28.1166 69.5867 27.5933 68.3004 27.4256 66.9102C27.2579 65.52 27.1744 63.0869 27.1744 59.6118V53.8357C27.1744 50.4437 27.2549 48.0426 27.4152 46.6308C27.5754 45.2199 28.0778 43.9306 28.923 42.7631C29.7675 41.5955 30.9086 40.6989 32.3464 40.0732C33.7841 39.4475 35.4589 39.135 37.3722 39.135C39.1871 39.135 40.8164 39.4304 42.2616 40.0212C43.7069 40.6121 44.8689 41.4983 45.7484 42.6799C46.6279 43.8616 47.1511 45.1479 47.3188 46.5373C47.4865 47.9275 47.57 50.3606 47.57 53.8357V59.6118H47.5692ZM38.7533 48.5183C38.7533 46.9478 38.6661 45.9428 38.4917 45.5049C38.3173 45.067 37.9573 44.848 37.4132 44.848C36.9526 44.848 36.6 45.0254 36.3556 45.3794C36.1111 45.7335 35.9889 46.78 35.9889 48.5176V64.2819C35.9889 66.2422 36.0686 67.4513 36.2296 67.9107C36.3898 68.3694 36.764 68.5988 37.3498 68.5988C37.9498 68.5988 38.3337 68.3345 38.5014 67.8061C38.6691 67.2783 38.7526 66.0203 38.7526 64.0318V48.5183H38.7533Z" fill="black"/>
<path d="M69.6194 45.1011L63.7543 61.3843V66.1821C63.7543 70.2807 60.4174 73.6037 56.3016 73.6037C55.6934 73.6037 55.2 73.1131 55.2 72.5067V61.3843L49.5392 42.602C49.1225 41.22 50.2137 39.8439 51.726 39.8439H55.3059C56.4 39.8439 57.3406 40.5868 57.5419 41.6089C58.6487 47.2313 59.2793 51.0776 59.4328 53.147C59.8875 49.9442 60.6157 48.5614 61.6174 44.0412C61.8388 43.0407 62.769 42.3215 63.8445 42.3215H67.4378C68.9598 42.3222 70.0524 43.7146 69.6194 45.1011Z" fill="black"/>
<path d="M90.0515 49.6614H85.7173C84.3295 49.6614 83.2048 48.5414 83.2048 47.1593C83.2048 45.9918 83.1943 45.6006 82.9849 45.2807C82.7754 44.9608 82.4259 44.8012 81.9377 44.8012C81.407 44.8012 81.006 45.0165 80.734 45.4485C80.4619 45.8797 80.3255 46.5336 80.3255 47.4102C80.3255 48.5369 80.4783 49.3853 80.7846 49.9561C81.0768 50.5268 81.9071 51.2149 83.2763 52.0202C87.2005 54.3397 89.6721 56.2435 90.691 57.7302C91.7099 59.2177 92.2197 61.6158 92.2197 64.9247C92.2197 67.3296 91.9372 69.102 91.3715 70.2421C90.8058 71.3822 89.7138 72.3374 88.0942 73.1093C86.4746 73.8813 84.5904 74.2665 82.4408 74.2665C80.081 74.2665 78.0679 73.8219 76.3998 72.9319C74.7317 72.0428 73.639 70.9094 73.1225 69.5333C72.606 68.1572 72.2169 67.0809 72.2169 64.5499L72.2035 63.1827C72.2035 61.9617 73.2515 60.9931 74.4776 60.9931H77.1876C78.9861 60.9931 80.4448 62.4449 80.4455 64.2359C80.4455 65.5007 80.6497 67.6495 80.88 68.0109C81.1103 68.3724 81.5188 68.5528 82.1054 68.5528C82.692 68.5528 83.128 68.3234 83.4142 67.8647C83.7004 67.406 83.8435 66.7246 83.8435 65.8213C83.8435 63.8336 83.5715 62.534 83.0274 61.9216C82.4691 61.31 81.0939 60.2887 78.9019 58.8562C76.7098 57.4103 75.2579 56.3608 74.5461 55.7076C73.8343 55.0545 73.244 54.1512 72.7767 52.997C72.3086 51.8436 72.0753 50.3695 72.0753 48.5762C72.0753 45.9903 72.407 44.0998 73.0704 42.9041C73.733 41.7083 74.8048 40.7739 76.2843 40.0992C77.7638 39.4252 79.5511 39.0883 81.6448 39.0883C83.9344 39.0883 85.885 39.4564 87.4972 40.1934C89.1094 40.9305 90.1774 41.8583 90.7007 42.9776C91.2239 44.0969 91.4147 44.2869 91.4147 46.9693L91.3908 48.3276C91.3916 49.0639 90.7916 49.6614 90.0515 49.6614Z" fill="black"/>
<path d="M108.722 39.8439C112.202 39.8439 115.022 42.6532 115.022 46.118V62.4056C115.022 64.9633 114.938 66.7603 114.771 67.7957C114.603 68.8319 114.107 69.8955 113.284 70.9858C112.46 72.0777 111.375 72.9045 110.027 73.4671C108.68 74.0297 107.092 74.3118 105.264 74.3118C103.24 74.3118 101.453 73.9778 99.9034 73.3112C98.3538 72.644 97.1948 71.7756 96.4271 70.7045C95.6594 69.6342 95.2055 68.5045 95.0661 67.3162C94.9267 66.1279 94.8567 63.6288 94.8567 59.8196V46.118C94.8567 42.6532 97.6778 39.8439 101.157 39.8439C102.546 39.8439 103.672 40.9654 103.672 42.3482V65.1585C103.672 66.6319 103.752 67.5745 103.913 67.9842C104.073 68.3947 104.398 68.5995 104.887 68.5995C105.445 68.5995 105.804 68.3739 105.965 67.9219C106.126 67.4699 106.206 66.4033 106.206 64.7214V42.3482C106.207 40.9654 107.333 39.8439 108.722 39.8439Z" fill="black"/>
<path d="M138.054 41.9867L138.119 71.4646C138.119 72.6462 137.157 73.6037 135.971 73.6037C132.661 73.6037 129.745 71.4379 128.801 68.2789L125.806 58.2558L125.747 68.5817C125.747 69.7634 124.786 70.7209 123.599 70.7209H120.525C119.338 70.7209 118.377 69.7634 118.377 68.5817L118.436 41.963C118.436 40.7925 119.389 39.8439 120.564 39.8439H124.258C125.181 39.8439 125.999 40.4362 126.283 41.3106L130.749 55.0456L130.685 41.9875C130.685 40.817 131.595 39.8239 132.771 39.8239H135.885C137.059 39.8231 138.054 40.8162 138.054 41.9867Z" fill="black"/>
<path d="M149.23 59.0462C148.82 59.0462 148.406 58.9408 148.027 58.7181C146.899 58.0553 146.525 56.608 147.191 55.4849C149.148 52.182 150.042 48.5295 149.774 44.9222C149.502 41.2763 148.044 37.6832 145.557 34.5324C143.165 31.5011 139.643 29.3932 135.641 28.5967C131.641 27.8003 127.395 28.3474 123.687 30.1354C122.509 30.7039 121.091 30.2133 120.52 29.0399C119.949 27.8664 120.442 26.4539 121.62 25.8861C126.253 23.6512 131.563 22.9699 136.571 23.9667C141.68 24.9835 146.195 27.7001 149.285 31.6147C152.357 35.5062 154.161 39.9878 154.502 44.5741C154.842 49.1463 153.726 53.7496 151.275 57.8853C150.831 58.6313 150.041 59.0462 149.23 59.0462Z" fill="#C93838"/>
<path d="M138.233 19.4094C136.952 19.4094 135.897 18.3925 135.864 17.1099C135.859 16.9236 135.746 12.4739 135.885 6.02466C135.913 4.7213 136.997 3.68737 138.306 3.71483C139.615 3.74303 140.654 4.82224 140.625 6.12561C140.489 12.4539 140.603 16.9422 140.604 16.9867C140.638 18.2901 139.604 19.3745 138.295 19.4086C138.274 19.4086 138.254 19.4094 138.233 19.4094Z" fill="#C93838"/>
<path d="M121.286 21.5671C120.441 21.5671 119.624 21.1165 119.196 20.3231C119.175 20.2838 117.04 16.3232 114.107 10.4855C113.521 9.31945 113.995 7.90104 115.166 7.31765C116.337 6.73425 117.761 7.20631 118.347 8.37236C121.25 14.1499 123.351 18.0496 123.372 18.0882C123.991 19.2372 123.559 20.6682 122.405 21.285C122.05 21.4765 121.665 21.5671 121.286 21.5671Z" fill="#C93838"/>
<path d="M167.659 68.0711C167.246 68.0711 166.828 67.9634 166.447 67.7371C166.408 67.714 162.512 65.3968 156.952 61.8727C155.847 61.1727 155.522 59.7135 156.224 58.6135C156.927 57.5135 158.393 57.1892 159.497 57.8891C165.001 61.3768 168.838 63.66 168.876 63.6822C170.001 64.3502 170.368 65.7998 169.696 66.9191C169.254 67.6606 168.467 68.0711 167.659 68.0711Z" fill="#C93838"/>
<path d="M173.146 46.5959C173.039 46.5959 172.931 46.5885 172.823 46.5744C166.34 45.6949 161.884 45.2169 161.84 45.2117C160.538 45.0729 159.596 43.9091 159.735 42.6124C159.874 41.3157 161.044 40.3775 162.345 40.5163C162.39 40.5208 166.914 41.0062 173.463 41.8954C174.761 42.0713 175.669 43.2618 175.492 44.5533C175.331 45.7379 174.313 46.5959 173.146 46.5959Z" fill="#C93838"/>
<path d="M154.625 28.7987C154.027 28.7987 153.429 28.5753 152.968 28.1262C152.031 27.2147 152.014 25.7199 152.929 24.7876C152.961 24.7557 156.125 21.5329 160.855 16.9823C161.797 16.076 163.298 16.102 164.208 17.0402C165.118 17.9776 165.092 19.4725 164.15 20.3788C159.468 24.8826 156.351 28.0564 156.321 28.0876C155.856 28.5612 155.241 28.7987 154.625 28.7987Z" fill="#C93838"/>
</svg>
